# xmcd
#
# Track frame offsets: 
#        150
#        10208
#        23485
#        38107
#        51957
#        73457
#        83014
#        92868
#        101680
#        114293
#        125855
#        143804
#        155380
#        168550
#
# Disc length: 2405 seconds
#
# Revision: 0
# Processed by: cddbd v1.5.2PL0 Copyright (c) Steve Scherf et al.
# Submitted via: ExactAudioCopy v0.95a4
#
DISCID=ba09630e
DTITLE=Judy Coder and Pride of the Prairie - Western Sky
DYEAR=2005
DGENRE=Country
TTITLE0=Out Where the West Winds Blow
TTITLE1=Back in the Saddle
TTITLE2=Western Sky
TTITLE3=Cherokee Maiden
TTITLE4=El Paso
TTITLE5=I Wish I Loved Texas Like You
TTITLE6=Joe Bob Rag
TTITLE7=Miss Molly
TTITLE8=In My Adobe Hacienda
TTITLE9=Mister Sandman
TTITLE10=Milk Cow Blues
TTITLE11=Don't Fence Me In
TTITLE12=I Only Want a Buddy
TTITLE13=He's a Wild and Reckless Cowboy
EXTD=
EXTT0=
EXTT1=
EXTT2=
EXTT3=
EXTT4=
EXTT5=
EXTT6=
EXTT7=
EXTT8=
EXTT9=
EXTT10=
EXTT11=
EXTT12=
EXTT13=
PLAYORDER=
